<svg width="12" height="22" viewBox="0 0 12 22" fill="none" xmlns="http://www.w3.org/2000/svg">
<path fill-rule="evenodd" clip-rule="evenodd" d="M11.6011 0.321356C11.1593 -0.107643 10.4448 -0.107643 10.004 0.321356L0.662593 9.41176C0.453488 9.61214 0.286985 9.8533 0.17321 10.1206C0.0594349 10.3879 0.000762939 10.6757 0.000762939 10.9666C0.000762939 11.2575 0.0594349 11.5453 0.17321 11.8126C0.286985 12.0799 0.453488 12.3211 0.662593 12.5215L10.0717 21.679C10.2852 21.8836 10.568 21.9986 10.8626 22.0007C11.1572 22.0027 11.4416 21.8916 11.6579 21.69C11.765 21.5904 11.8508 21.4696 11.9098 21.3353C11.9688 21.2009 11.9998 21.0558 12.0009 20.9088C12.0021 20.7619 11.9733 20.6163 11.9163 20.481C11.8594 20.3457 11.7755 20.2237 11.6699 20.1225L3.05823 11.7438C2.95359 11.6436 2.87027 11.5229 2.81333 11.3892C2.75639 11.2555 2.72703 11.1116 2.72703 10.9661C2.72703 10.8206 2.75639 10.6766 2.81333 10.5429C2.87027 10.4092 2.95359 10.2886 3.05823 10.1884L11.6011 1.87566C11.7057 1.77556 11.789 1.65503 11.846 1.52143C11.9029 1.38782 11.9323 1.24392 11.9323 1.09851C11.9323 0.953091 11.9029 0.809196 11.846 0.675589C11.789 0.541981 11.7057 0.421457 11.6011 0.321356Z" fill="#939393"/>
</svg>
