<svg width="32" height="32" viewBox="0 0 32 32" fill="none" xmlns="http://www.w3.org/2000/svg">
<g clip-path="url(#clip0_982_1549)">
<path d="M18.8145 15.9999L31.3899 3.44445C31.7658 3.06858 31.977 2.55878 31.977 2.02722C31.977 1.49565 31.7658 0.985859 31.3899 0.609986C31.0141 0.234113 30.5043 0.0229492 29.9727 0.0229492C29.4411 0.0229492 28.9313 0.234113 28.5555 0.609986L16 13.1854L3.44452 0.609986C3.06865 0.234113 2.55886 0.0229497 2.02729 0.0229497C1.49573 0.0229497 0.985932 0.234113 0.610059 0.609986C0.234185 0.985859 0.0230222 1.49565 0.0230222 2.02722C0.0230222 2.55878 0.234185 3.06858 0.610059 3.44445L13.1855 15.9999L0.610059 28.5554C0.422967 28.741 0.274469 28.9617 0.17313 29.205C0.0717902 29.4482 0.0196152 29.7091 0.0196152 29.9726C0.0196152 30.2361 0.0717902 30.497 0.17313 30.7403C0.274469 30.9835 0.422967 31.2043 0.610059 31.3899C0.795622 31.577 1.01639 31.7255 1.25964 31.8268C1.50288 31.9281 1.76378 31.9803 2.02729 31.9803C2.2908 31.9803 2.5517 31.9281 2.79494 31.8268C3.03819 31.7255 3.25896 31.577 3.44452 31.3899L16 18.8144L28.5555 31.3899C28.741 31.577 28.9618 31.7255 29.2051 31.8268C29.4483 31.9281 29.7092 31.9803 29.9727 31.9803C30.2362 31.9803 30.4971 31.9281 30.7404 31.8268C30.9836 31.7255 31.2044 31.577 31.3899 31.3899C31.577 31.2043 31.7255 30.9835 31.8269 30.7403C31.9282 30.497 31.9804 30.2361 31.9804 29.9726C31.9804 29.7091 31.9282 29.4482 31.8269 29.205C31.7255 28.9617 31.577 28.741 31.3899 28.5554L18.8145 15.9999Z" fill="black"/>
</g>
<defs>
<clipPath id="clip0_982_1549">
<rect width="32" height="32" fill="white"/>
</clipPath>
</defs>
</svg>
