<svg width="512" height="512" viewBox="0 0 512 512" fill="none" xmlns="http://www.w3.org/2000/svg">
<g clip-path="url(#clip0_965_1562)">
<path d="M255.939 511.945C397.325 511.945 511.94 397.329 511.94 255.944C511.94 114.558 397.325 -0.057251 255.939 -0.057251C114.554 -0.057251 -0.0615234 114.558 -0.0615234 255.944C-0.0615234 397.329 114.554 511.945 255.939 511.945Z" fill="#EF4C45"/>
<path d="M309.867 505.962C314.776 505.01 319.656 503.915 324.501 502.677C332.717 500.38 340.812 497.675 348.757 494.57C356.713 491.491 364.509 488.017 372.117 484.16C379.728 480.287 387.14 476.037 394.325 471.424C401.503 466.81 408.445 461.84 415.125 456.533C421.818 451.218 428.24 445.572 434.368 439.616C440.486 433.673 446.303 427.429 451.797 420.906C457.297 414.378 462.466 407.578 467.285 400.533C472.104 393.5 476.568 386.23 480.661 378.752C484.755 371.262 488.472 363.572 491.797 355.712C495.126 347.849 498.06 339.825 500.587 331.669C502.751 324.528 504.601 317.296 506.133 309.994L354.027 157.909C341.173 145.006 325.895 134.772 309.072 127.794C292.249 120.815 274.213 117.231 256 117.248C237.784 117.229 219.743 120.811 202.917 127.789C186.09 134.768 170.809 145.004 157.952 157.909C145.038 170.77 134.794 186.057 127.808 202.891C120.823 219.725 117.234 237.774 117.248 256C117.237 274.218 120.828 292.26 127.813 309.087C134.798 325.913 145.041 341.193 157.952 354.048L309.867 505.962Z" fill="#DF2209"/>
<path d="M256.021 117.268C291.477 117.268 326.933 130.815 354.069 157.93C366.966 170.798 377.198 186.084 384.179 202.912C391.161 219.74 394.754 237.78 394.754 255.999C394.754 274.218 391.161 292.258 384.179 309.086C377.198 325.914 366.966 341.2 354.069 354.068C341.206 366.966 325.924 377.2 309.099 384.182C292.275 391.164 274.237 394.758 256.021 394.758C237.805 394.758 219.768 391.164 202.943 384.182C186.119 377.2 170.837 366.966 157.973 354.068C143.468 339.634 132.347 322.159 125.415 302.905C118.483 283.651 115.912 263.098 117.888 242.73C120.968 210.653 135.154 180.66 157.995 157.93C170.849 145.027 186.126 134.793 202.949 127.814C219.772 120.836 237.809 117.252 256.021 117.268ZM308.651 192.404C308.629 192.404 308.587 192.404 308.565 192.447C305.808 192.556 303.198 193.716 301.269 195.69L255.979 240.916L210.731 195.69C209.737 194.675 208.553 193.866 207.246 193.309C205.939 192.753 204.535 192.46 203.115 192.447C194.645 192.404 189.568 204.906 195.648 210.772L240.896 256.02L195.648 301.268C187.477 309.119 202.901 324.522 210.731 316.351L255.979 271.124L301.269 316.351C309.12 324.522 324.523 309.098 316.352 301.268L271.125 256.02L316.352 210.772C322.539 204.842 317.205 192.127 308.651 192.404Z" fill="white"/>
</g>
<defs>
<clipPath id="clip0_965_1562">
<rect width="512" height="512" fill="white"/>
</clipPath>
</defs>
</svg>
