<svg width="20" height="20" viewBox="0 0 20 20" fill="none" xmlns="http://www.w3.org/2000/svg">
<g clip-path="url(#clip0_637_6738)">
<path d="M11.7585 10.0003L19.6182 2.15309C19.8531 1.91817 19.9851 1.59954 19.9851 1.26732C19.9851 0.935088 19.8531 0.616467 19.6182 0.381546C19.3833 0.146626 19.0646 0.0146484 18.7324 0.0146484C18.4002 0.0146484 18.0816 0.146626 17.8466 0.381546L9.99946 8.24119L2.15229 0.381546C1.91737 0.146626 1.59874 0.0146487 1.26652 0.0146487C0.934288 0.0146487 0.615667 0.146626 0.380746 0.381546C0.145825 0.616467 0.0138481 0.935088 0.0138481 1.26732C0.0138481 1.59954 0.145825 1.91817 0.380746 2.15309L8.2404 10.0003L0.380746 17.8474C0.263814 17.9634 0.171002 18.1014 0.107665 18.2534C0.0443282 18.4054 0.0117188 18.5685 0.0117188 18.7332C0.0117188 18.8979 0.0443282 19.061 0.107665 19.213C0.171002 19.365 0.263814 19.503 0.380746 19.619C0.496723 19.7359 0.634705 19.8287 0.786732 19.8921C0.938759 19.9554 1.10182 19.988 1.26652 19.988C1.43121 19.988 1.59427 19.9554 1.7463 19.8921C1.89833 19.8287 2.03631 19.7359 2.15229 19.619L9.99946 11.7593L17.8466 19.619C17.9626 19.7359 18.1006 19.8287 18.2526 19.8921C18.4046 19.9554 18.5677 19.988 18.7324 19.988C18.8971 19.988 19.0602 19.9554 19.2122 19.8921C19.3642 19.8287 19.5022 19.7359 19.6182 19.619C19.7351 19.503 19.8279 19.365 19.8913 19.213C19.9546 19.061 19.9872 18.8979 19.9872 18.7332C19.9872 18.5685 19.9546 18.4054 19.8913 18.2534C19.8279 18.1014 19.7351 17.9634 19.6182 17.8474L11.7585 10.0003Z" fill="black"/>
</g>
<defs>
<clipPath id="clip0_637_6738">
<rect width="20" height="20" fill="white"/>
</clipPath>
</defs>
</svg>
