<svg width="14" height="14" viewBox="0 0 14 14" fill="none" xmlns="http://www.w3.org/2000/svg">
<g clip-path="url(#clip0_637_5767)">
<path d="M0.800751 0.1652C1.04264 0.0455618 1.31521 -0.0111246 1.58931 0.00120544C1.8634 0.0135355 2.12871 0.0944185 2.35685 0.235201L11.4569 5.8352C11.6647 5.96294 11.8351 6.13605 11.953 6.33918C12.0709 6.54231 12.1327 6.76917 12.1329 6.99963C12.133 7.23008 12.0715 7.45701 11.9539 7.66027C11.8362 7.86353 11.666 8.03683 11.4584 8.1648L2.35837 13.7648C2.12992 13.9053 1.86445 13.986 1.59026 13.9982C1.31606 14.0104 1.04342 13.9537 0.801373 13.8342C0.559328 13.7146 0.356955 13.5367 0.21582 13.3194C0.0746861 13.102 8.01086e-05 12.8534 -4.95911e-05 12.6V1.4C0.000112534 1.1466 0.0746593 0.897967 0.215664 0.680545C0.356668 0.463121 0.558861 0.285029 0.800751 0.1652ZM13.65 0H16.6833C17.522 0 18.2 0.6258 18.2 1.4V12.6C18.2 13.3742 17.522 14 16.6833 14H13.65C12.8112 14 12.1333 13.3742 12.1333 12.6V1.4C12.1333 0.6258 12.8112 0 13.65 0Z" fill="black"/>
</g>
<defs>
<clipPath id="clip0_637_5767">
<rect width="14" height="14" fill="white" transform="matrix(-1 0 0 -1 14 14)"/>
</clipPath>
</defs>
</svg>
