<svg width="32" height="32" viewBox="0 0 32 32" fill="none" xmlns="http://www.w3.org/2000/svg">
<g clip-path="url(#clip0_982_1547)">
<path d="M0 29.7448C0 30.3524 0.187301 30.9351 0.520699 31.3647C0.854097 31.7943 1.30628 32.0356 1.77778 32.0356H30.2222C30.6937 32.0356 31.1459 31.7943 31.4793 31.3647C31.8127 30.9351 32 30.3524 32 29.7448C32 29.1373 31.8127 28.5546 31.4793 28.125C31.1459 27.6953 30.6937 27.454 30.2222 27.454H1.77778C1.30628 27.454 0.854097 27.6953 0.520699 28.125C0.187301 28.5546 0 29.1373 0 29.7448ZM0 15.9999C0 16.6074 0.187301 17.1901 0.520699 17.6197C0.854097 18.0493 1.30628 18.2907 1.77778 18.2907H30.2222C30.6937 18.2907 31.1459 18.0493 31.4793 17.6197C31.8127 17.1901 32 16.6074 32 15.9999C32 15.3923 31.8127 14.8096 31.4793 14.38C31.1459 13.9504 30.6937 13.709 30.2222 13.709H1.77778C1.30628 13.709 0.854097 13.9504 0.520699 14.38C0.187301 14.8096 0 15.3923 0 15.9999ZM1.77778 4.54571C1.30628 4.54571 0.854097 4.30436 0.520699 3.87475C0.187301 3.44513 0 2.86245 0 2.25489C0 1.64732 0.187301 1.06464 0.520699 0.635025C0.854097 0.205412 1.30628 -0.0359406 1.77778 -0.0359406H30.2222C30.6937 -0.0359406 31.1459 0.205412 31.4793 0.635025C31.8127 1.06464 32 1.64732 32 2.25489C32 2.86245 31.8127 3.44513 31.4793 3.87475C31.1459 4.30436 30.6937 4.54571 30.2222 4.54571H1.77778Z" fill="black"/>
</g>
<defs>
<clipPath id="clip0_982_1547">
<rect width="32" height="32" fill="white" transform="matrix(1 0 0 -1 0 32)"/>
</clipPath>
</defs>
</svg>
