<svg width="50" height="50" viewBox="0 0 50 50" fill="none" xmlns="http://www.w3.org/2000/svg">
<rect width="50" height="50" rx="4" transform="matrix(-1 0 0 1 50 0)" fill="black" fill-opacity="0.38"/>
<path d="M17.8001 36.5C17.5971 36.5 17.3798 36.4272 17.1712 36.2565C16.9818 36.0995 16.8119 35.869 16.6895 35.5759C16.567 35.2829 16.5003 34.9465 16.5 34.5998V15.3996C16.5 14.6822 16.7811 14.0655 17.1709 13.7433C17.3591 13.5892 17.5583 13.513 17.7488 13.5016C17.9386 13.4901 18.1369 13.5417 18.328 13.6681C18.3283 13.6682 18.3285 13.6684 18.3287 13.6685L32.7274 23.2675C32.9382 23.4083 33.1341 23.6379 33.2775 23.9476C33.4207 24.2568 33.5 24.6216 33.5 24.9998C33.5 25.378 33.4207 25.7428 33.2775 26.052C33.1341 26.3617 32.9382 26.5912 32.7274 26.732L18.3273 36.332C18.1535 36.4478 17.9704 36.5 17.8001 36.5Z" fill="white" stroke="white"/>
</svg>
