<svg width="18" height="24" viewBox="0 0 18 24" fill="none" xmlns="http://www.w3.org/2000/svg">
<g clip-path="url(#clip0_637_5763)">
<path d="M1.80005 24C1.47064 24 1.14303 23.88 0.853226 23.6424C0.592533 23.4267 0.377381 23.126 0.228089 22.7686C0.0787982 22.4112 0.000296739 22.009 0 21.6V2.39961C0 1.5668 0.32401 0.793984 0.853226 0.357176C1.11449 0.142999 1.41233 0.0209353 1.71871 0.00246201C2.0251 -0.0160113 2.32998 0.0697126 2.60468 0.251575L17.0051 9.85175C17.3041 10.0514 17.5555 10.3581 17.7312 10.7375C17.9069 11.1168 18 11.5539 18 11.9998C18 12.4457 17.9069 12.8827 17.7312 13.2621C17.5555 13.6415 17.3041 13.9481 17.0051 14.1478L2.60468 23.748C2.35267 23.916 2.07366 24 1.80005 24Z" fill="black"/>
</g>
<defs>
<clipPath id="clip0_637_5763">
<rect width="18" height="24" fill="white" transform="matrix(-1 0 0 1 18 0)"/>
</clipPath>
</defs>
</svg>
