<svg width="14" height="14" viewBox="0 0 14 14" fill="none" xmlns="http://www.w3.org/2000/svg">
<g clip-path="url(#clip0_637_5765)">
<path d="M13.1992 0.1652C12.9574 0.0455618 12.6848 -0.0111246 12.4107 0.00120544C12.1366 0.0135355 11.8713 0.0944185 11.6432 0.235201L2.54315 5.8352C2.33535 5.96294 2.16492 6.13605 2.04699 6.33918C1.92906 6.54231 1.86728 6.76917 1.86713 6.99963C1.86698 7.23008 1.92847 7.45701 2.04613 7.66027C2.16379 7.86353 2.334 8.03683 2.54163 8.1648L11.6416 13.7648C11.8701 13.9053 12.1355 13.986 12.4097 13.9982C12.6839 14.0104 12.9566 13.9537 13.1986 13.8342C13.4407 13.7146 13.643 13.5367 13.7842 13.3194C13.9253 13.102 13.9999 12.8534 14 12.6V1.4C13.9999 1.1466 13.9253 0.897967 13.7843 0.680544C13.6433 0.463121 13.4411 0.285029 13.1992 0.1652ZM0.350049 0H-2.68328C-3.522 0 -4.19995 0.6258 -4.19995 1.4V12.6C-4.19995 13.3742 -3.522 14 -2.68328 14H0.350049C1.18877 14 1.86672 13.3742 1.86672 12.6V1.4C1.86672 0.6258 1.18877 0 0.350049 0Z" fill="black"/>
</g>
<defs>
<clipPath id="clip0_637_5765">
<rect width="14" height="14" fill="white" transform="matrix(1 0 0 -1 0 14)"/>
</clipPath>
</defs>
</svg>
