<svg width="20" height="20" viewBox="0 0 20 20" fill="none" xmlns="http://www.w3.org/2000/svg">
<path d="M16.2171 3.00258H3.59326L4.96085 1.71321C5.15894 1.525 5.27023 1.26973 5.27023 1.00356C5.27023 0.737395 5.15894 0.482126 4.96085 0.293916C4.76275 0.105705 4.49408 -3.05176e-05 4.21394 -3.05176e-05C3.93379 -3.05176e-05 3.66512 0.105705 3.46702 0.293916L0.311055 3.29243C0.212453 3.38535 0.134191 3.4959 0.0807832 3.6177C0.0273751 3.73949 -0.00012207 3.87014 -0.00012207 4.00208C-0.00012207 4.13403 0.0273751 4.26467 0.0807832 4.38647C0.134191 4.50827 0.212453 4.61881 0.311055 4.71173L3.46702 7.71025C3.56482 7.80393 3.68117 7.87829 3.80936 7.92903C3.93756 7.97977 4.07506 8.0059 4.21394 8.0059C4.35281 8.0059 4.49031 7.97977 4.61851 7.92903C4.7467 7.87829 4.86305 7.80393 4.96085 7.71025C5.05945 7.61733 5.13771 7.50679 5.19112 7.38499C5.24453 7.26319 5.27202 7.13255 5.27202 7.0006C5.27202 6.86865 5.24453 6.73801 5.19112 6.61621C5.13771 6.49441 5.05945 6.38387 4.96085 6.29095L3.59326 5.00159H16.2171C16.4327 4.99761 16.6469 5.03402 16.8476 5.10872C17.0483 5.18343 17.2316 5.29498 17.3869 5.43699C17.5422 5.579 17.6666 5.74869 17.7529 5.93638C17.8392 6.12406 17.8857 6.32606 17.8898 6.53083V8.99961C17.8898 9.2647 18.0006 9.51892 18.1979 9.70637C18.3952 9.89381 18.6628 9.99912 18.9418 9.99912C19.2208 9.99912 19.4884 9.89381 19.6857 9.70637C19.8829 9.51892 19.9938 9.2647 19.9938 8.99961V6.53083C19.9897 6.06355 19.8887 5.60162 19.6967 5.17141C19.5046 4.74121 19.2253 4.35115 18.8746 4.02352C18.5239 3.69589 18.1087 3.4371 17.6527 3.26192C17.1968 3.08675 16.709 2.99862 16.2171 3.00258ZM16.5327 12.288C16.3346 12.0998 16.066 11.994 15.7858 11.994C15.5057 11.994 15.237 12.0998 15.0389 12.288C14.8408 12.4762 14.7295 12.7315 14.7295 12.9976C14.7295 13.2638 14.8408 13.5191 15.0389 13.7073L16.4065 14.9966H3.78262C3.5671 15.0006 3.35286 14.9642 3.15215 14.8895C2.95144 14.8148 2.76818 14.7033 2.61285 14.5612C2.45752 14.4192 2.33316 14.2495 2.24688 14.0619C2.16059 13.8742 2.11406 13.6722 2.10996 13.4674V10.9986C2.10996 10.7335 1.99912 10.4793 1.80184 10.2919C1.60455 10.1044 1.33697 9.99912 1.05797 9.99912C0.778962 9.99912 0.511385 10.1044 0.314098 10.2919C0.116812 10.4793 0.00597772 10.7335 0.00597772 10.9986V13.4674C0.0101048 13.9347 0.111066 14.3966 0.303097 14.8268C0.495128 15.257 0.774467 15.6471 1.12516 15.9747C1.47586 16.3023 1.89105 16.5611 2.34702 16.7363C2.80298 16.9115 3.2908 16.9996 3.78262 16.9957H16.4065L15.0389 18.285C14.9403 18.3779 14.862 18.4885 14.8086 18.6103C14.7552 18.7321 14.7277 18.8627 14.7277 18.9947C14.7277 19.1266 14.7552 19.2573 14.8086 19.3791C14.862 19.5009 14.9403 19.6114 15.0389 19.7043C15.1367 19.798 15.2531 19.8724 15.3812 19.9231C15.5094 19.9738 15.6469 20 15.7858 20C15.9247 20 16.0622 19.9738 16.1904 19.9231C16.3186 19.8724 16.4349 19.798 16.5327 19.7043L19.6887 16.7058C19.7873 16.6129 19.8656 16.5023 19.919 16.3805C19.9724 16.2587 19.9999 16.1281 19.9999 15.9962C19.9999 15.8642 19.9724 15.7336 19.919 15.6118C19.8656 15.49 19.7873 15.3794 19.6887 15.2865L16.5327 12.288Z" fill="black"/>
</svg>
