<svg width="512" height="512" viewBox="0 0 512 512" fill="none" xmlns="http://www.w3.org/2000/svg">
<g clip-path="url(#clip0_965_1557)">
<path d="M256 512C397.385 512 512 397.385 512 256C512 114.615 397.385 0 256 0C114.615 0 0 114.615 0 256C0 397.385 114.615 512 256 512Z" fill="#50B748"/>
<path d="M309.867 505.962C314.776 505.01 319.657 503.915 324.502 502.677C332.717 500.38 340.813 497.675 348.758 494.57C356.713 491.491 364.509 488.017 372.118 484.16C379.728 480.287 387.14 476.037 394.326 471.424C401.503 466.81 408.445 461.84 415.126 456.533C421.818 451.218 428.241 445.572 434.368 439.616C440.486 433.673 446.303 427.429 451.798 420.906C457.297 414.378 462.466 407.578 467.286 400.533C472.104 393.5 476.569 386.23 480.662 378.752C484.756 371.262 488.472 363.572 491.798 355.712C495.127 347.849 498.06 339.825 500.587 331.669C502.751 324.528 504.602 317.296 506.134 309.994L354.027 157.909C341.182 145.007 325.912 134.772 309.096 127.794C292.28 120.815 274.25 117.231 256.043 117.248C237.82 117.228 219.773 120.81 202.939 127.788C186.106 134.766 170.817 145.002 157.952 157.909C145.056 170.777 134.824 186.063 127.842 202.891C120.861 219.719 117.268 237.759 117.268 255.978C117.268 274.197 120.861 292.237 127.842 309.065C134.824 325.893 145.056 341.179 157.952 354.048L309.867 505.962Z" fill="#10A711"/>
<path d="M256.022 117.268C291.478 117.268 326.934 130.815 354.07 157.93C366.966 170.798 377.198 186.084 384.18 202.912C391.161 219.74 394.754 237.78 394.754 255.999C394.754 274.218 391.161 292.258 384.18 309.086C377.198 325.914 366.966 341.2 354.07 354.068C341.201 366.965 325.915 377.197 309.087 384.178C292.259 391.16 274.219 394.753 256 394.753C237.781 394.753 219.742 391.16 202.913 384.178C186.085 377.197 170.799 366.965 157.931 354.068C145.034 341.2 134.802 325.914 127.821 309.086C120.84 292.258 117.246 274.218 117.246 255.999C117.246 237.78 120.84 219.74 127.821 202.912C134.802 186.084 145.034 170.798 157.931 157.93C170.795 145.023 186.084 134.787 202.918 127.809C219.752 120.83 237.799 117.248 256.022 117.268ZM319.168 213.311C317.149 213.504 315.226 214.266 313.622 215.508L235.67 273.962L199.552 237.866C191.723 229.716 176.299 245.119 184.47 252.948L227.136 295.615C228.986 297.364 231.384 298.42 233.923 298.602C236.462 298.785 238.986 298.084 241.067 296.618L326.4 232.618C333.568 227.391 329.152 213.46 320.278 213.332C319.915 213.314 319.552 213.314 319.19 213.332L319.168 213.311Z" fill="white"/>
</g>
<defs>
<clipPath id="clip0_965_1557">
<rect width="512" height="512" fill="white"/>
</clipPath>
</defs>
</svg>
